<?xml version="1.0" encoding="UTF-8"?>
<svg version="1.1" xmlns="http://www.w3.org/2000/svg" width="1254" height="1254">
<path d="M0 0 C413.82 0 827.64 0 1254 0 C1254 413.82 1254 827.64 1254 1254 C840.18 1254 426.36 1254 0 1254 C0 840.18 0 426.36 0 0 Z " fill="#050609" transform="translate(0,0)"/>
<path d="M0 0 C1.736536 -0.0057181 3.47306825 -0.01268786 5.20959473 -0.02079773 C9.88130888 -0.03858697 14.55283375 -0.03758765 19.22457147 -0.03185534 C23.14548888 -0.0287422 27.06637104 -0.03487949 30.98728341 -0.04089409 C40.24855142 -0.05489149 49.50972709 -0.05341855 58.77099609 -0.04199219 C68.27829661 -0.03052041 77.78531472 -0.04458187 87.29257804 -0.07138866 C95.49863409 -0.0936476 103.70460215 -0.10016008 111.91068619 -0.09431225 C116.7926566 -0.09096517 121.67444617 -0.09320603 126.55639076 -0.11056328 C131.15231253 -0.12619364 135.74782074 -0.12190146 140.34372711 -0.10325813 C142.01485053 -0.09961603 143.68600572 -0.10255 145.35709953 -0.11314392 C177.02818272 -0.29834401 206.85441856 11.66622609 229.93237305 33.36108398 C232.14588411 35.45574907 232.14588411 35.45574907 234.6706543 37.36499023 C255.44052204 54.43880277 268.26311456 85.35057301 271.15112305 111.40405273 C271.51145674 117.52975795 271.45587322 123.67051445 271.45751953 129.80444336 C271.46515737 131.62448459 271.4735876 133.44452265 271.48274231 135.26455688 C271.50453707 140.17413784 271.51346611 145.08365657 271.51856875 149.99328041 C271.52223093 153.07218266 271.52848054 156.15106906 271.53557014 159.22996521 C271.56001478 170.0044729 271.57310523 180.77893281 271.57666016 191.5534668 C271.58028908 201.5423891 271.61015131 211.53100298 271.65206474 221.51983118 C271.68694432 230.13946895 271.70221165 238.75900539 271.70290619 247.37871313 C271.70369316 252.50735046 271.71216101 257.63567308 271.74090385 262.76423645 C271.95874726 304.17742939 271.95874726 304.17742939 266.15112305 320.40405273 C265.907404 321.1072464 265.66368496 321.81044006 265.41258049 322.53494263 C253.94337779 355.26489886 230.19146912 381.92220111 199.15112305 397.40405273 C174.88825897 408.81781842 150.85551099 408.99459599 124.5803504 408.87549162 C119.81359294 408.85769047 115.04684375 408.8614501 110.28005981 408.86221313 C102.28340015 408.86035034 94.28689388 408.843125 86.2902832 408.81567383 C77.09252603 408.78421262 67.89493625 408.77367908 58.69712913 408.77514493 C48.83212726 408.77650388 38.96718841 408.76258138 29.10220575 408.74425173 C26.29048446 408.74002358 23.47877358 408.73857414 20.66704941 408.7377739 C16.22298743 408.7357399 11.77906161 408.72333019 7.33504486 408.70344162 C5.7203645 408.69768409 4.10566844 408.69512164 2.49097824 408.69629669 C-5.86518422 408.70007119 -14.10717656 408.41380228 -22.41989136 407.51870728 C-23.49779487 407.4042506 -23.49779487 407.4042506 -24.59747422 407.28748167 C-55.41493873 403.63883903 -83.47705475 384.44709145 -102.71850586 360.81445312 C-118.61121674 340.5853997 -129.0214745 315.30758039 -128.98931885 289.40574646 C-128.99228997 288.6417867 -128.99526109 287.87782695 -128.99832225 287.0907169 C-129.00693483 284.55249128 -129.00851114 282.01431324 -129.01000977 279.47607422 C-129.01464328 277.64703777 -129.01966865 275.81800228 -129.02505493 273.9889679 C-129.03813095 269.03404739 -129.04461467 264.0791404 -129.04906559 259.12420535 C-129.05200452 256.02243353 -129.05611089 252.92066533 -129.06056976 249.81889534 C-129.07423304 240.09645177 -129.083905 230.37401657 -129.08777165 220.65156406 C-129.09224745 209.46163079 -129.10977809 198.27181996 -129.13877225 187.0819239 C-129.1604535 178.41068445 -129.17047939 169.73947929 -129.17181277 161.06821305 C-129.17285633 155.89953235 -129.17866782 150.73096693 -129.19663239 145.56231499 C-129.21322453 140.69408002 -129.21521502 135.82604562 -129.20649338 130.95779228 C-129.20572889 129.18220478 -129.20998698 127.406606 -129.21995163 125.6310463 C-129.37698197 95.87877584 -119.29659569 68.08317596 -99.84887695 45.40405273 C-99.40930664 44.88762207 -98.96973633 44.37119141 -98.5168457 43.83911133 C-81.29805265 23.7732628 -58.56423723 9.59521685 -32.84887695 3.40405273 C-31.7515817 3.13779555 -30.65428644 2.87153837 -29.52373981 2.59721279 C-19.60015264 0.39753693 -10.13892438 -0.03057453 0 0 Z " fill="#F78008" transform="translate(555.848876953125,278.595947265625)"/>
<path d="M0 0 C4.10232593 2.01517765 6.53890465 4.19648901 9 8 C11.51721589 18.27164939 5.99800093 30.14727571 2.9375 39.8125 C2.36904718 41.64735469 1.80198121 43.48263964 1.23632812 45.31835938 C-0.48547725 50.88644834 -2.23806264 56.44449523 -4 62 C-4.32635437 63.02913513 -4.65270874 64.05827026 -4.98895264 65.11859131 C-6.98694507 71.41421181 -8.9906804 77.70798585 -11 84 C-10.00299072 83.99111755 -9.00598145 83.98223511 -7.97875977 83.9730835 C1.43701626 83.89184408 10.85272076 83.83196103 20.26876831 83.79275131 C25.10917823 83.77191515 29.94930423 83.74367034 34.78955078 83.69824219 C39.46447524 83.65464242 44.13912734 83.63083304 48.8142395 83.62049103 C50.59396652 83.61312496 52.37367936 83.59874078 54.15328979 83.57707977 C56.65459906 83.54785722 59.15479632 83.54405175 61.65625 83.54589844 C62.38489761 83.53151733 63.11354523 83.51713623 63.86427307 83.50231934 C69.88565859 83.55012792 74.99851465 85.36602932 79.56872559 89.37664413 C82.66810946 92.76944572 83.73896266 95.4753527 84 100 C84.09667969 100.7425 84.19335938 101.485 84.29296875 102.25 C84.93912122 110.0525959 81.83768352 114.14159263 77 120 C72.5204049 124.89032949 67.74564217 129.4956126 63 134.125 C60.5170156 136.56124436 58.03844265 139.001913 55.5625 141.4453125 C54.97041748 142.02871399 54.37833496 142.61211548 53.76831055 143.2131958 C50.24134273 146.70795215 46.90241614 150.29210868 43.69140625 154.08154297 C39.20441468 159.17085876 34.21394636 163.81909762 29.3828125 168.578125 C25.64500043 172.28185368 21.9552513 175.97071306 18.53125 179.96875 C13.30115149 186.06849018 7.45584983 191.58595852 1.73828125 197.22265625 C-2.77383444 201.69570601 -7.13222656 206.2063879 -11.26611328 211.03027344 C-14.58210967 214.7973051 -18.1416012 218.32598803 -21.6875 221.875 C-22.43322266 222.63296875 -23.17894531 223.3909375 -23.94726562 224.171875 C-25.03104492 225.25855469 -25.03104492 225.25855469 -26.13671875 226.3671875 C-26.78342529 227.01800293 -27.43013184 227.66881836 -28.09643555 228.33935547 C-31.13610824 230.99112585 -33.28476743 231.93252523 -37.3125 232.3125 C-42.77527523 231.84955295 -46.56481469 230.51072138 -50.375 226.5 C-53.56075974 221.59883118 -53.66923076 216.48624395 -52.59179688 210.87353516 C-52.02901905 208.66831345 -51.40570385 206.49186252 -50.75 204.3125 C-50.52183594 203.52359375 -50.29367187 202.7346875 -50.05859375 201.921875 C-48.44877704 196.39094051 -46.74707921 190.88825323 -45.02734375 185.390625 C-43.60440936 180.69440047 -42.30165374 175.96724488 -41.01367188 171.23242188 C-39.54434306 165.8615988 -37.98479061 160.51931846 -36.40991211 155.17871094 C-36.17793877 154.39108368 -35.94596542 153.60345642 -35.70696259 152.79196167 C-35.13827138 150.86122048 -34.56917628 148.93059825 -34 147 C-35.0014505 147.00888245 -36.002901 147.01776489 -37.03469849 147.0269165 C-46.48053027 147.10806517 -55.92629116 147.16799554 -65.37239265 147.20724869 C-70.22855299 147.22810775 -75.08443152 147.2563947 -79.94042969 147.30175781 C-84.62831256 147.34527551 -89.31592468 147.36914976 -94.00399399 147.37950897 C-95.79095598 147.38688971 -97.57790344 147.40130271 -99.36474991 147.42292023 C-101.87125718 147.45203345 -104.37665115 147.45595277 -106.88330078 147.45410156 C-107.61913895 147.46848267 -108.35497711 147.48286377 -109.1131134 147.49768066 C-115.14174494 147.44962377 -118.59688323 145.29731918 -122.86328125 141.21875 C-123.34152344 140.6515625 -123.81976562 140.084375 -124.3125 139.5 C-124.80363281 138.9328125 -125.29476562 138.365625 -125.80078125 137.78125 C-128.00284883 134.5104265 -128.19541033 131.12012185 -128.3125 127.25 C-128.34988281 126.45078125 -128.38726563 125.6515625 -128.42578125 124.828125 C-127.08511618 115.92315702 -120.94504318 110.4746351 -114.6875 104.5 C-108.00902566 98.09969559 -108.00902566 98.09969559 -101.76953125 91.28125 C-95.66909612 84.15297106 -88.77166664 77.71998794 -82.10644531 71.12695312 C-73.14975871 62.28531708 -73.14975871 62.28531708 -64.72265625 52.9453125 C-60.01456345 47.6286907 -54.79313671 42.76070196 -49.73828125 37.77734375 C-45.26862004 33.3463809 -40.96134626 28.87769181 -36.86767578 24.09912109 C-32.83662274 19.56853364 -28.48298905 15.34020234 -24.1875 11.0625 C-23.22444087 10.09587098 -22.26154919 9.1290751 -21.29882812 8.16210938 C-20.38939453 7.25396484 -19.47996094 6.34582031 -18.54296875 5.41015625 C-17.71821045 4.58652588 -16.89345215 3.76289551 -16.04370117 2.91430664 C-11.5234852 -1.31971718 -5.88569247 -0.56164124 0 0 Z " fill="#080708" transform="translate(649,376)"/>
<path d="M0 0 C14.293125 -0.103125 28.58625 -0.20625 43.3125 -0.3125 C50.05361206 -0.38078003 50.05361206 -0.38078003 56.9309082 -0.45043945 C62.46716309 -0.47302246 62.46716309 -0.47302246 65.06828308 -0.47721863 C66.86452956 -0.48483942 68.66075228 -0.50230525 70.45683289 -0.52787781 C89.84024432 -0.78978874 89.84024432 -0.78978874 99 5 C99.69793167 5.42000778 100.39586334 5.84001556 101.11494446 6.27275085 C108.01891527 10.59641891 111.86222225 17.27222231 114 25 C115.05756141 30.14426676 115.1769895 35.12378196 115.203125 40.3515625 C115.20882507 41.24684662 115.21452515 42.14213074 115.22039795 43.06454468 C115.22981578 44.95561555 115.23636909 46.8467026 115.24023438 48.73779297 C115.24989862 51.5950274 115.28093567 54.45152904 115.3125 57.30859375 C115.39835098 71.9133132 114.62600472 85.40175973 104.37109375 96.8125 C96.40307116 104.20741655 87.20371705 106.16240845 76.62963867 106.11352539 C75.36493099 106.11370619 75.36493099 106.11370619 74.07467365 106.11389065 C71.35574483 106.11314653 68.63688525 106.10554113 65.91796875 106.09765625 C64.23522983 106.09618528 62.55249045 106.09516552 60.86975098 106.09460449 C54.64232699 106.08936958 48.41491281 106.07540833 42.1875 106.0625 C28.265625 106.041875 14.34375 106.02125 0 106 C0 71.02 0 36.04 0 0 Z " fill="#FAFAFA" transform="translate(971,759)"/>
<path d="M0 0 C8.58 0 17.16 0 26 0 C26 35.31 26 70.62 26 107 C14.45 107 2.9 107 -9 107 C-19.26042898 94.45947569 -19.26042898 94.45947569 -23.9375 88.125 C-24.96811534 86.74041278 -25.99937413 85.3563043 -27.03125 83.97265625 C-27.53269531 83.29992676 -28.03414062 82.62719727 -28.55078125 81.93408203 C-31.45169493 78.06261334 -34.41486786 74.23948899 -37.37109375 70.41015625 C-40.98431458 65.72923492 -44.56972118 61.02702923 -48.15917969 56.32788086 C-50.75990943 52.92457613 -53.3639723 49.52401599 -55.98046875 46.1328125 C-56.66882813 45.24045898 -56.66882813 45.24045898 -57.37109375 44.33007812 C-58.60458771 42.73239232 -59.83935743 41.1356917 -61.07421875 39.5390625 C-62.44179957 37.73596405 -63.74468008 35.88297988 -65 34 C-65.33 58.09 -65.66 82.18 -66 107 C-74.58 107 -83.16 107 -92 107 C-92 72.02 -92 37.04 -92 1 C-57 1 -57 1 -49.5 8.125 C-47.1328125 12.55859375 -47.1328125 12.55859375 -46.09082031 14.82373047 C-44.33254355 18.33162641 -41.87762939 21.18869639 -39.375 24.1875 C-38.46005242 25.3383805 -37.54853992 26.49200094 -36.640625 27.6484375 C-35.97836914 28.48713379 -35.97836914 28.48713379 -35.30273438 29.34277344 C-28.77442113 37.64753174 -22.4036865 46.07850578 -15.99267578 54.47387695 C-11.01104314 60.99501125 -6.00353621 67.49540292 -1 74 C-0.67 49.58 -0.34 25.16 0 0 Z " fill="#F9F9F9" transform="translate(900,758)"/>
<path d="M0 0 C0.86879791 -0.00014603 1.73759583 -0.00029205 2.63272095 -0.0004425 C5.49500046 0.00025233 8.35721432 0.00802466 11.21948242 0.01586914 C13.20773788 0.01773484 15.1959938 0.01915803 17.18424988 0.02015686 C22.41044388 0.02397005 27.63660997 0.03379011 32.86279297 0.04486084 C38.19848249 0.05510072 43.53417653 0.05966 48.86987305 0.06469727 C59.334078 0.07541345 69.79826226 0.09247549 80.26245117 0.11352539 C79.79005066 3.59364621 79.30840257 7.07242393 78.82495117 10.55102539 C78.62289062 12.04085937 78.62289062 12.04085937 78.41674805 13.56079102 C78.21855469 14.97714844 78.21855469 14.97714844 78.01635742 16.42211914 C77.89591064 17.29666748 77.77546387 18.17121582 77.65136719 19.07226562 C77.26245117 21.11352539 77.26245117 21.11352539 76.26245117 22.11352539 C73.84490597 22.22253195 71.45487329 22.26774413 69.03637695 22.27124023 C68.2802713 22.27632095 67.52416565 22.28140167 66.74514771 22.28663635 C65.09782202 22.29736265 63.45048156 22.30597391 61.80313492 22.31275558 C59.19776952 22.32450797 56.59257265 22.34395101 53.98727417 22.36587524 C46.57791734 22.42761526 39.1685765 22.48156557 31.7590332 22.51489258 C27.2319763 22.53580675 22.70522406 22.57108536 18.17834091 22.61565018 C16.45038306 22.62983872 14.72237127 22.63853903 12.99435806 22.64170456 C10.57835143 22.64659861 8.16315684 22.66971686 5.74731445 22.69702148 C4.67181335 22.69251228 4.67181335 22.69251228 3.57458496 22.68791199 C0.68160913 22.73661089 -1.27306327 22.78656022 -3.67825317 24.47964478 C-5.21863667 26.85556572 -5.17123773 28.74224737 -5.17504883 31.55102539 C-5.19438477 32.49848633 -5.2137207 33.44594727 -5.23364258 34.42211914 C-4.59010833 37.91341912 -3.49709661 38.91931604 -0.73754883 41.11352539 C2.09604876 41.71425356 2.09604876 41.71425356 5.26513672 41.62768555 C6.47707199 41.64094879 7.68900726 41.65421204 8.93766785 41.6678772 C10.24496353 41.66283173 11.55225922 41.65778625 12.89916992 41.65258789 C14.26196363 41.66250251 15.62474394 41.67444668 16.98750305 41.68832397 C20.57617877 41.72068787 24.16454968 41.73107563 27.75335693 41.73516846 C33.47873191 41.74391823 39.2038558 41.77979557 44.92902565 41.82734299 C46.91681461 41.83980664 48.90467438 41.8385945 50.89250183 41.83706665 C62.90258318 41.90514314 72.33162669 43.18270091 81.07495117 51.92602539 C85.91350399 58.97648806 86.74562931 65.21529879 86.63745117 73.55102539 C86.64905273 74.44112305 86.6606543 75.3312207 86.67260742 76.24829102 C86.63255492 85.38693711 84.61901318 92.64949858 78.29760742 99.38696289 C73.03193494 103.85419367 66.09252663 106.24297736 59.21282959 106.23377991 C58.41640045 106.23515457 57.61997131 106.23652924 56.79940796 106.23794556 C55.93481964 106.23435028 55.07023132 106.230755 54.17944336 106.22705078 C52.80331375 106.22726982 52.80331375 106.22726982 51.39938354 106.22749329 C48.36934031 106.22679705 45.33935866 106.21901814 42.30932617 106.21118164 C40.20754022 106.20931643 38.10575383 106.20789302 36.00396729 106.20689392 C30.47362059 106.20307683 24.94330018 106.1932534 19.41296387 106.18218994 C13.76904659 106.17195848 8.12512506 106.16739258 2.48120117 106.16235352 C-8.59172704 106.15163044 -19.66463575 106.13456368 -30.73754883 106.11352539 C-30.26394672 102.82103286 -29.78272436 99.52969901 -29.30004883 96.23852539 C-29.1653418 95.30137695 -29.03063477 94.36422852 -28.8918457 93.39868164 C-28.7597168 92.5027832 -28.62758789 91.60688477 -28.49145508 90.68383789 C-28.3710083 89.8564209 -28.25056152 89.02900391 -28.12646484 88.17651367 C-27.73754883 86.11352539 -27.73754883 86.11352539 -26.73754883 84.11352539 C-25.73387772 84.10765915 -24.7302066 84.10179291 -23.69612122 84.0957489 C-14.23504076 84.03852292 -4.77419018 83.96576191 4.686656 83.87781048 C9.55052723 83.83309295 14.41431444 83.79383983 19.27832031 83.76708984 C23.97282871 83.74107071 28.66701399 83.70067808 33.3613224 83.65033913 C35.15181775 83.63366102 36.94236899 83.62215262 38.73293114 83.61591148 C41.24205736 83.60628061 43.75035516 83.57823411 46.25927734 83.54589844 C46.99871078 83.54733353 47.73814423 83.54876862 48.49998474 83.55024719 C52.90931592 83.46994032 55.75440238 82.83174084 59.26245117 80.11352539 C60.98615891 76.66610992 60.76551789 72.883172 60.26245117 69.11352539 C58.38624504 66.61191721 57.02353814 65.49406887 54.26245117 64.11352539 C52.22190695 64.01863474 50.17824724 63.98838048 48.13549805 63.98754883 C46.20208557 63.98183868 46.20208557 63.98183868 44.22961426 63.97601318 C43.53796677 63.97581932 42.84631927 63.97562546 42.13371277 63.97542572 C39.21787957 63.97200486 36.30226825 63.95062535 33.38651276 63.93019485 C27.95938886 63.89225103 22.53249629 63.86089758 17.10522461 63.86303711 C13.32893056 63.86382941 9.55344223 63.84023546 5.77735901 63.80115509 C4.34546034 63.79076472 2.91346785 63.78911925 1.48155212 63.79680634 C-8.36847132 63.84436597 -16.38739395 63.0204568 -23.87487793 56.15325928 C-30.82087621 49.00637483 -32.28522031 41.3728917 -32.17504883 31.73852539 C-32.16675049 30.8089502 -32.15845215 29.879375 -32.14990234 28.92163086 C-31.93232957 20.11496621 -30.45633373 13.79142122 -24.42504883 7.17602539 C-17.32677888 0.71614375 -9.27620721 -0.04095912 0 0 Z " fill="#FAF9FA" transform="translate(371.737548828125,758.886474609375)"/>
<path d="M0 0 C35.31 0 70.62 0 107 0 C107 13 107 13 106 22 C79.27 22 52.54 22 25 22 C25 28.6 25 35.2 25 42 C48.76 42 72.52 42 97 42 C97 52 97 52 96 63 C72.57 63 49.14 63 25 63 C25 69.93 25 76.86 25 84 C52.39 84 79.78 84 108 84 C108 91.26 108 98.52 108 106 C72.36 106 36.72 106 0 106 C0 71.02 0 36.04 0 0 Z " fill="#FAFAFA" transform="translate(655,759)"/>
<path d="M0 0 C0.99 0.495 0.99 0.495 2 1 C1.71334473 1.84425537 1.71334473 1.84425537 1.42089844 2.70556641 C-2.3167731 13.74091792 -5.92020179 24.76092596 -9 36 C-9.35578125 37.16917969 -9.7115625 38.33835937 -10.078125 39.54296875 C-11.79159018 45.96846319 -12.34933351 52.4093521 -9 58.375 C-4.87093395 63.68105434 -1.11520085 66.60626841 5.73120117 67.47158813 C10.43347093 67.73877417 15.13552026 67.71960119 19.84375 67.70703125 C21.58111292 67.72015957 23.31846061 67.73546727 25.05578613 67.75285339 C29.60632433 67.79258392 34.15646216 67.80288609 38.70715332 67.80688477 C43.35957899 67.81623883 48.01177163 67.85366653 52.6640625 67.88867188 C61.77603089 67.9531259 70.88782357 67.98646583 80 68 C80 68.66 80 69.32 80 70 C78.59132473 71.16816974 77.17880458 72.33194137 75.74975586 73.47509766 C73.94772554 75.0455569 72.47627519 76.69254268 70.94140625 78.5234375 C65.5561847 84.76195371 59.60321484 90.44067787 53.73828125 96.22265625 C49.24909493 100.67297515 44.92537376 105.16277196 40.81445312 109.96289062 C36.26202359 115.07396059 31.25675326 119.77692963 26.3828125 124.578125 C21.96314048 128.95749606 17.71192441 133.38803386 13.66210938 138.11083984 C10.83667212 141.32224311 7.79469282 144.31064376 4.75 147.3125 C4.13898438 147.91900391 3.52796875 148.52550781 2.8984375 149.15039062 C1.77169054 150.26852708 0.64390642 151.38562031 -0.48535156 152.5012207 C-1.9955313 153.99557812 -3.49897671 155.49645068 -5 157 C-4.39092759 153.03719294 -3.59057803 149.22777569 -2.51171875 145.3671875 C-2.21716797 144.31273437 -1.92261719 143.25828125 -1.61914062 142.171875 C-1.31169922 141.08390625 -1.00425781 139.9959375 -0.6875 138.875 C-0.39166016 137.81023437 -0.09582031 136.74546875 0.20898438 135.6484375 C1.99914536 129.27654699 3.9669815 123.01415738 6.19970703 116.78271484 C8.07068864 110.27708692 8.30136616 103.54317873 5 97.5 C2.4629029 93.48292959 -1.69563859 91.68059092 -6 90 C-8.85443698 89.62602038 -11.31981042 89.43397613 -14.16015625 89.45410156 C-14.93185654 89.44376389 -15.70355682 89.43342621 -16.49864197 89.42277527 C-19.02014608 89.39354867 -21.54084049 89.39185244 -24.0625 89.390625 C-25.82228101 89.37562966 -27.58204801 89.35889968 -29.34179688 89.34051514 C-33.95144325 89.29698115 -38.56089981 89.27687361 -43.17071533 89.26177979 C-47.88345498 89.2421582 -52.59599115 89.20019396 -57.30859375 89.16015625 C-66.53899952 89.08500544 -75.76935941 89.03462255 -85 89 C-85 88.34 -85 87.68 -85 87 C-83.671875 85.6953125 -83.671875 85.6953125 -81.75 84.125 C-77.9818451 80.91905649 -74.43507942 77.55677358 -70.9375 74.0625 C-70.45571289 73.58506348 -69.97392578 73.10762695 -69.47753906 72.61572266 C-66.88868258 70.01727782 -64.43729169 67.35725132 -62.06640625 64.55859375 C-55.48078224 56.95896258 -48.10276409 50.05144319 -40.9609375 42.98144531 C-31.54014222 33.70817772 -31.54014222 33.70817772 -22.68261719 23.90527344 C-18.88517762 19.60532881 -14.7090789 15.64997501 -10.625 11.625 C-8.82324599 9.8486586 -7.02364817 8.07012661 -5.2265625 6.2890625 C-4.43846191 5.51256348 -3.65036133 4.73606445 -2.83837891 3.93603516 C-0.94237659 2.12774043 -0.94237659 2.12774043 0 0 Z " fill="#F37E08" transform="translate(629,413)"/>
<path d="M0 0 C0.84012131 -0.00043808 1.68024261 -0.00087616 2.54582214 -0.00132751 C5.28917683 0.00074226 8.03190018 0.0239865 10.77514648 0.04760742 C12.69042121 0.05320984 14.60570026 0.05747688 16.52098083 0.06047058 C21.53679488 0.07186851 26.55234406 0.10129174 31.5680542 0.13458252 C36.69629332 0.16539283 41.82457566 0.17899925 46.95288086 0.1940918 C56.99661637 0.22616666 67.04015618 0.27730129 77.08374023 0.34057617 C77.18705054 7.76743933 77.08236722 14.97570213 76.08374023 22.34057617 C75.16189941 22.33978058 74.24005859 22.33898499 73.2902832 22.33816528 C64.58053488 22.33595271 55.87144172 22.36247491 47.16188049 22.42085457 C42.68468395 22.44986273 38.20800917 22.46796153 33.73071289 22.46069336 C29.40553075 22.45408076 25.08137786 22.47669356 20.75640869 22.51913071 C19.11073472 22.5302278 17.46495594 22.53099277 15.8192749 22.52099991 C4.21241439 22.21619803 4.21241439 22.21619803 -5.60775757 27.73233032 C-9.27726456 32.24242545 -9.23513443 36.76474537 -9.25219727 42.38745117 C-9.26218246 43.5434079 -9.26218246 43.5434079 -9.27236938 44.72271729 C-9.28246634 46.34987005 -9.28718732 47.97706398 -9.28686523 49.60424805 C-9.2912219 52.0691524 -9.32752389 54.53224011 -9.36547852 56.99682617 C-9.82658092 68.93195288 -9.82658092 68.93195288 -4.91625977 79.34057617 C0.19687769 82.74194122 3.49197374 83.84417303 9.76318359 83.88647461 C10.49572357 83.89681229 11.22826355 83.90714996 11.98300171 83.9178009 C14.38009129 83.94706224 16.77633042 83.94872445 19.17358398 83.94995117 C20.84511408 83.96494419 22.51662941 83.98167368 24.18812561 84.00006104 C28.56927193 84.04362126 32.95021843 84.06370836 37.33154297 84.07879639 C41.80960855 84.0984085 46.28745964 84.14037382 50.76538086 84.18041992 C59.53813729 84.25559945 68.31073827 84.30389683 77.08374023 84.34057617 C77.08374023 91.60057617 77.08374023 98.86057617 77.08374023 106.34057617 C66.43459888 106.40853162 55.78560311 106.46349566 45.13629341 106.49601269 C40.1906334 106.51162441 35.24513029 106.53278009 30.29956055 106.56689453 C25.52089789 106.59964888 20.74238554 106.61746293 15.96361923 106.6252079 C14.14648958 106.63072267 12.32936753 106.64149126 10.5123024 106.65776634 C-2.82047524 106.77236423 -14.27698599 106.38099804 -24.91625977 97.34057617 C-33.72539698 88.41170311 -35.38266707 78.60237393 -35.38500977 66.41088867 C-35.39262329 65.29930389 -35.40023682 64.18771912 -35.40808105 63.04244995 C-35.41882671 60.70451082 -35.42175787 58.36652391 -35.41723633 56.02856445 C-35.41626427 52.48200225 -35.45794902 48.93760811 -35.50219727 45.39135742 C-35.50740568 43.10620562 -35.51009244 40.8210464 -35.51000977 38.53588867 C-35.52640503 37.49175812 -35.54280029 36.44762756 -35.55969238 35.37185669 C-35.46736523 25.37164722 -32.46987468 16.95454039 -25.91625977 9.34057617 C-24.09204102 7.64526367 -24.09204102 7.64526367 -22.22875977 6.21557617 C-21.62676758 5.73862305 -21.02477539 5.26166992 -20.40454102 4.77026367 C-13.89726144 1.03138718 -7.41232043 -0.10358563 0 0 Z " fill="#F9F9F9" transform="translate(531.916259765625,758.659423828125)"/>
<path d="M0 0 C10.56 0 21.12 0 32 0 C38.52314808 12.19167696 44.79113179 24.49622219 50.96484375 36.8671875 C51.36566792 37.67027596 51.76649208 38.47336441 52.17946243 39.30078888 C55.10163892 45.15744977 58.01990868 51.01605392 60.9375 56.875 C63.88097673 62.78567318 66.82582808 68.69565394 69.77401924 74.6039772 C70.9427927 76.9479639 72.10913951 79.29314717 73.27537537 81.63839722 C73.99067583 83.07262967 74.70608823 84.50680631 75.42163086 85.94091797 C75.90085243 86.9071106 75.90085243 86.9071106 76.38975525 87.89282227 C78.12230491 91.35832737 79.98889256 94.68996949 82 98 C83.34971475 100.98357998 84 102.70334304 84 106 C74.76 106 65.52 106 56 106 C48.0597961 91.07578245 40.41400128 76.01587757 32.85546875 60.89624023 C31.18287342 57.55094597 29.50469228 54.20848521 27.8252697 50.86661434 C26.5220655 48.2712732 25.22245959 45.67414313 23.92389297 43.07647896 C23.30557737 41.8410262 22.68596736 40.60622038 22.06502914 39.37208366 C21.20738562 37.66653318 20.3552567 35.95821296 19.50341797 34.24975586 C18.77588821 32.79683388 18.77588821 32.79683388 18.03366089 31.31455994 C17 29 17 29 17 27 C16.34 27 15.68 27 15 27 C14.64905273 28.1897644 14.64905273 28.1897644 14.29101562 29.40356445 C12.64993934 33.97517843 10.52810294 38.20997307 8.34375 42.54296875 C7.88198364 43.46604324 7.42021729 44.38911774 6.94445801 45.34016418 C5.96454139 47.29698074 4.98268412 49.25282652 3.99902344 51.20776367 C2.5287137 54.13042334 1.06459316 57.05611292 -0.3984375 59.98242188 C-5.35955207 69.88544224 -10.3883104 79.74704859 -15.58996582 89.52616882 C-18.48666478 94.97844293 -21.23607714 100.47215427 -24 106 C-33.57 106 -43.14 106 -53 106 C-51.39890464 101.19671391 -49.58307655 96.97440905 -47.25390625 92.53125 C-46.70336075 91.46769791 -46.70336075 91.46769791 -46.14169312 90.38265991 C-45.35786262 88.86935852 -44.57212575 87.35704327 -43.78463745 85.84564209 C-41.72556123 81.89366775 -39.67986714 77.93477324 -37.6328125 73.9765625 C-37.02701607 72.80651169 -37.02701607 72.80651169 -36.40898132 71.61282349 C-33.19365346 65.39549497 -30.0453015 59.14679572 -26.9375 52.875 C-23.46603243 45.87859749 -19.89130081 38.94976104 -16.2097168 32.06176758 C-12.32645924 24.78033071 -8.66337321 17.39375934 -5 10 C-3.35 6.7 -1.7 3.4 0 0 Z " fill="#F9F8F9" transform="translate(222,759)"/>
<path d="M0 0 C8.085 -0.061875 16.17 -0.12375 24.5 -0.1875 C27.03751953 -0.21481201 29.57503906 -0.24212402 32.18945312 -0.27026367 C34.22004725 -0.27903258 36.25064669 -0.28667556 38.28125 -0.29296875 C39.83924316 -0.3159906 39.83924316 -0.3159906 41.42871094 -0.33947754 C47.88608351 -0.34178594 54.54720776 -0.22346186 59.55554199 4.45222473 C63.88718873 9.49951529 64.18040917 13.05003986 64.23828125 19.48046875 C64.246353 20.32668289 64.25442474 21.17289703 64.26274109 22.04475403 C64.27658588 23.83946686 64.28730627 25.63420606 64.29516602 27.42895508 C64.31232427 30.15953397 64.35619894 32.88888469 64.40039062 35.61914062 C64.41052259 37.36457445 64.41903712 39.11001855 64.42578125 40.85546875 C64.44328934 41.66614304 64.46079742 42.47681732 64.47883606 43.3120575 C64.45296949 50.1538769 62.55270479 54.44729521 57.625 59.375 C51.72270214 63.02880344 44.41312203 62.13111095 37.6953125 62.09765625 C36.73810303 62.09664917 35.78089355 62.09564209 34.79467773 62.09460449 C31.23810621 62.08939453 27.68155183 62.07543333 24.125 62.0625 C16.16375 62.041875 8.2025 62.02125 0 62 C0 41.54 0 21.08 0 0 Z " fill="#07080B" transform="translate(996,781)"/>
<path d="M0 0 C2.22265625 1.65625 2.22265625 1.65625 4.22265625 4.65625 C4.59375 7.36328125 4.59375 7.36328125 4.66015625 10.46875 C4.70011719 11.48582031 4.74007812 12.50289062 4.78125 13.55078125 C4.05584879 17.58360614 2.53987333 20.28695088 -0.77734375 22.65625 C-3.66882936 23.47817852 -6.35183203 23.45403713 -9.33984375 23.34375 C-10.47196289 23.36598633 -10.47196289 23.36598633 -11.62695312 23.38867188 C-15.35977806 23.33276172 -17.39006349 22.98394868 -20.265625 20.55078125 C-23.08455552 15.15329413 -22.65838741 9.56276667 -21.77734375 3.65625 C-20.77288652 1.38415897 -20.06402619 0.56938957 -17.95703125 -0.7109375 C-12.15609496 -2.39508029 -5.48111431 -2.65190341 0 0 Z " fill="#F27A09" transform="translate(626.77734375,914.34375)"/>
<path d="M0 0 C35.97 0 71.94 0 109 0 C109 1.32 109 2.64 109 4 C73.03 4 37.06 4 0 4 C0 2.68 0 1.36 0 0 Z " fill="#C26206" transform="translate(168,923)"/>
<path d="M0 0 C3.2175 -0.0825 6.435 -0.165 9.75 -0.25 C11.26158691 -0.30462402 11.26158691 -0.30462402 12.80371094 -0.36035156 C19.360469 -0.44201468 19.360469 -0.44201468 22.60546875 1.80078125 C24.68725559 5.08382323 24.6006592 7.19582507 24 11 C21.5 13.9375 21.5 13.9375 19 16 C21.475 19.465 21.475 19.465 24 23 C21.4375 23.4375 21.4375 23.4375 18 23 C16.08630115 21.33032986 14.44965897 19.50688942 12.74609375 17.625 C10.34582105 15.39118916 8.22098753 15.07856067 5 15 C5 17.64 5 20.28 5 23 C3.35 23 1.7 23 0 23 C0 15.41 0 7.82 0 0 Z " fill="#DD7108" transform="translate(318,914)"/>
<path d="M0 0 C3.238125 -0.061875 6.47625 -0.12375 9.8125 -0.1875 C11.33774292 -0.22846802 11.33774292 -0.22846802 12.89379883 -0.27026367 C13.69841553 -0.27775635 14.50303223 -0.28524902 15.33203125 -0.29296875 C16.56530151 -0.31653442 16.56530151 -0.31653442 17.82348633 -0.34057617 C20.51146275 0.08003259 21.3720898 0.85937234 23 3 C23.36328125 5.19140625 23.36328125 5.19140625 23.3125 7.5625 C23.30863281 8.34753906 23.30476562 9.13257813 23.30078125 9.94140625 C23 12 23 12 21 14 C19.68 14 18.36 14 17 14 C17.433125 14.48210938 17.86625 14.96421875 18.3125 15.4609375 C18.869375 16.09257813 19.42625 16.72421875 20 17.375 C20.556875 18.00148438 21.11375 18.62796875 21.6875 19.2734375 C23 21 23 21 23 23 C20.375 23.4375 20.375 23.4375 17 23 C15.32210821 21.32210821 13.96080962 19.51107559 12.5234375 17.625 C10.95841273 15.6734576 10.95841273 15.6734576 7.625 15.0625 C6.75875 15.041875 5.8925 15.02125 5 15 C5 17.64 5 20.28 5 23 C3.35 23 1.7 23 0 23 C0 15.41 0 7.82 0 0 Z " fill="#EA6E09" transform="translate(929,914)"/>
<path d="M0 0 C7.26 0 14.52 0 22 0 C22 1.65 22 3.3 22 5 C16.72 5 11.44 5 6 5 C6 6.65 6 8.3 6 10 C10.62 10 15.24 10 20 10 C20 11.65 20 13.3 20 15 C15.38 15 10.76 15 6 15 C6 16.32 6 17.64 6 19 C11.28 19 16.56 19 22 19 C22 20.65 22 22.3 22 24 C14.74 24 7.48 24 0 24 C0 16.08 0 8.16 0 0 Z " fill="#B15208" transform="translate(876,913)"/>
<path d="M0 0 C1.33224609 0.03383789 1.33224609 0.03383789 2.69140625 0.06835938 C4.87932812 0.12717448 7.06379671 0.20928732 9.25 0.3125 C9.25 1.6325 9.25 2.9525 9.25 4.3125 C8.10660156 4.36148438 6.96320312 4.41046875 5.78515625 4.4609375 C4.29424527 4.53595189 2.80336108 4.61150028 1.3125 4.6875 C0.18038086 4.73390625 0.18038086 4.73390625 -0.97460938 4.78125 C-2.90507395 4.8851315 -4.82942081 5.09145614 -6.75 5.3125 C-7.92673198 7.66596396 -7.91623866 9.1931033 -7.9375 11.8125 C-7.95167969 12.6065625 -7.96585938 13.400625 -7.98046875 14.21875 C-7.94666303 16.53283317 -7.94666303 16.53283317 -5.75 18.3125 C-3.08757179 18.77540221 -3.08757179 18.77540221 -0.125 18.9375 C0.87789062 19.01226563 1.88078125 19.08703125 2.9140625 19.1640625 C3.68492187 19.21304688 4.45578125 19.26203125 5.25 19.3125 C5.25 17.3325 5.25 15.3525 5.25 13.3125 C3.27 13.3125 1.29 13.3125 -0.75 13.3125 C-0.75 11.9925 -0.75 10.6725 -0.75 9.3125 C3.21 9.3125 7.17 9.3125 11.25 9.3125 C11.73333274 17.40832344 11.73333274 17.40832344 9.76953125 21.08203125 C6.16878949 24.26966465 3.33806062 23.98517904 -1.3125 23.8125 C-2.08013672 23.81507813 -2.84777344 23.81765625 -3.63867188 23.8203125 C-9.14793739 23.72424859 -9.14793739 23.72424859 -11.71484375 21.96875 C-13.85147023 18.55014763 -13.96934794 15.36949762 -14.0625 11.4375 C-14.09988281 10.40882813 -14.13726563 9.38015625 -14.17578125 8.3203125 C-12.93526401 -0.44297439 -7.41858164 -0.35613575 0 0 Z " fill="#EA770D" transform="translate(674.75,913.6875)"/>
<path d="M0 0 C0.78552246 0.01047363 1.57104492 0.02094727 2.38037109 0.03173828 C3.23115234 0.03818359 4.08193359 0.04462891 4.95849609 0.05126953 C6.29267578 0.07640625 6.29267578 0.07640625 7.65380859 0.10205078 C8.99958984 0.11558594 8.99958984 0.11558594 10.37255859 0.12939453 C12.59157445 0.15300108 14.81005937 0.18592768 17.02880859 0.22705078 C17.02880859 1.54705078 17.02880859 2.86705078 17.02880859 4.22705078 C11.74880859 4.22705078 6.46880859 4.22705078 1.02880859 4.22705078 C1.02880859 5.87705078 1.02880859 7.52705078 1.02880859 9.22705078 C2.07681641 9.19224609 3.12482422 9.15744141 4.20458984 9.12158203 C5.58348006 9.09344141 6.96238762 9.06614154 8.34130859 9.03955078 C9.37674805 9.0018457 9.37674805 9.0018457 10.43310547 8.96337891 C15.50579998 8.88986159 15.50579998 8.88986159 17.98583984 10.48876953 C19.22903017 12.56075341 19.43117174 13.81909371 19.40380859 16.22705078 C19.41154297 16.90767578 19.41927734 17.58830078 19.42724609 18.28955078 C18.90339042 20.8369274 18.05800017 21.62237158 16.02880859 23.22705078 C13.85229492 23.56762695 13.85229492 23.56762695 11.36083984 23.52001953 C10.46816406 23.51035156 9.57548828 23.50068359 8.65576172 23.49072266 C7.26260742 23.45301758 7.26260742 23.45301758 5.84130859 23.41455078 C4.9009375 23.40101563 3.96056641 23.38748047 2.99169922 23.37353516 C0.67015821 23.33818174 -1.65022794 23.28883752 -3.97119141 23.22705078 C-3.97119141 21.90705078 -3.97119141 20.58705078 -3.97119141 19.22705078 C4.44380859 18.73205078 4.44380859 18.73205078 13.02880859 18.22705078 C13.02880859 16.90705078 13.02880859 15.58705078 13.02880859 14.22705078 C11.98080078 14.20126953 10.93279297 14.17548828 9.85302734 14.14892578 C8.47407958 14.0926422 7.09517494 14.03529491 5.71630859 13.97705078 C5.02601563 13.96287109 4.33572266 13.94869141 3.62451172 13.93408203 C0.37656161 13.77717623 -1.51936274 13.63989815 -3.96337891 11.40673828 C-5.48847026 8.10828488 -4.80339417 5.68389303 -3.97119141 2.22705078 C-1.97119141 0.22705078 -1.97119141 0.22705078 0 0 Z " fill="#EB7F08" transform="translate(414.97119140625,913.77294921875)"/>
<path d="M0 0 C6.93 0 13.86 0 21 0 C21 1.32 21 2.64 21 4 C16.05 4 11.1 4 6 4 C6 5.65 6 7.3 6 9 C10.29 9 14.58 9 19 9 C19 10.32 19 11.64 19 13 C14.38 13 9.76 13 5 13 C5 14.98 5 16.96 5 19 C10.61 19 16.22 19 22 19 C22 20.32 22 21.64 22 23 C14.74 23 7.48 23 0 23 C0 15.41 0 7.82 0 0 Z " fill="#DE7409" transform="translate(465,914)"/>
<path d="M0 0 C1.98 0 3.96 0 6 0 C6 7.92 6 15.84 6 24 C4.35 24 2.7 24 1 24 C1 20.7 1 17.4 1 14 C-3.62 14 -8.24 14 -13 14 C-13 17.3 -13 20.6 -13 24 C-14.65 24 -16.3 24 -18 24 C-18 16.41 -18 8.82 -18 1 C-16.35 1 -14.7 1 -13 1 C-13 3.97 -13 6.94 -13 10 C-8.71 10 -4.42 10 0 10 C0 6.7 0 3.4 0 0 Z " fill="#CE6008" transform="translate(839,913)"/>
<path d="M0 0 C6.93 0 13.86 0 21 0 C21 1.32 21 2.64 21 4 C15.72 4 10.44 4 5 4 C5 5.65 5 7.3 5 9 C9.62 9 14.24 9 19 9 C19 10.32 19 11.64 19 13 C14.38 13 9.76 13 5 13 C5 14.98 5 16.96 5 19 C10.28 19 15.56 19 21 19 C21 20.32 21 21.64 21 23 C14.07 23 7.14 23 0 23 C0 15.41 0 7.82 0 0 Z " fill="#EA750A" transform="translate(717,914)"/>
<path d="M0 0 C30.36 0 60.72 0 92 0 C92 0.99 92 1.98 92 3 C61.64 3 31.28 3 0 3 C0 2.01 0 1.02 0 0 Z " fill="#DD6D07" transform="translate(994,924)"/>
<path d="M0 0 C7.59 0 15.18 0 23 0 C23 1.65 23 3.3 23 5 C20.03 5 17.06 5 14 5 C14 11.27 14 17.54 14 24 C12.02 24 10.04 24 8 24 C8 17.73 8 11.46 8 5 C5.36 5 2.72 5 0 5 C0 3.35 0 1.7 0 0 Z " fill="#A85208" transform="translate(553,913)"/>
<path d="M0 0 C4.8571875 -0.061875 4.8571875 -0.061875 9.8125 -0.125 C10.82932861 -0.14320801 11.84615723 -0.16141602 12.89379883 -0.18017578 C13.69841553 -0.1851709 14.50303223 -0.19016602 15.33203125 -0.1953125 C16.15421143 -0.20578613 16.9763916 -0.21625977 17.82348633 -0.22705078 C20 0 20 0 23 2 C23.40843923 4.71203652 23.13336867 7.2437142 23 10 C22.34 9.34 21.68 8.68 21 8 C20.01 8.495 20.01 8.495 19 9 C19 7.02 19 5.04 19 3 C18.01 3.495 18.01 3.495 17 4 C14.95944995 4.07065617 12.91665743 4.08421976 10.875 4.0625 C9.77929688 4.05347656 8.68359375 4.04445313 7.5546875 4.03515625 C6.29011719 4.01775391 6.29011719 4.01775391 5 4 C5 6.64 5 9.28 5 12 C8.63 12 12.26 12 16 12 C16 12.33 16 12.66 16 13 C10.555 13.495 10.555 13.495 5 14 C5 16.97 5 19.94 5 23 C3.35 23 1.7 23 0 23 C0 15.41 0 7.82 0 0 Z " fill="#EE7D0A" transform="translate(318,914)"/>
<path d="M0 0 C1.09054687 0.02320313 2.18109375 0.04640625 3.3046875 0.0703125 C4.40039062 0.08835937 5.49609375 0.10640625 6.625 0.125 C7.46804688 0.14820313 8.31109375 0.17140625 9.1796875 0.1953125 C10.48058581 2.79710913 10.34808828 4.7922313 10.3671875 7.6953125 C10.38136719 8.675 10.39554688 9.6546875 10.41015625 10.6640625 C10.1796875 13.1953125 10.1796875 13.1953125 8.1796875 15.1953125 C5.6484375 15.4609375 5.6484375 15.4609375 2.6796875 15.4453125 C1.7 15.45046875 0.7203125 15.455625 -0.2890625 15.4609375 C-2.8203125 15.1953125 -2.8203125 15.1953125 -4.8203125 13.1953125 C-5.0859375 10.6640625 -5.0859375 10.6640625 -5.0703125 7.6953125 C-5.07546875 6.715625 -5.080625 5.7359375 -5.0859375 4.7265625 C-4.69420356 0.99356849 -3.70752098 0.25675353 0 0 Z " fill="#0D0806" transform="translate(614.8203125,917.8046875)"/>
<path d="M0 0 C1.76514683 0.00056508 3.53029412 0.00024567 5.29544067 -0.00088501 C10.05707596 -0.00145576 14.81860923 0.01025332 19.58022094 0.02426291 C24.56766087 0.03681683 29.55510347 0.03794443 34.54255676 0.04031372 C43.97348493 0.04651484 53.40436639 0.06290705 62.83527404 0.0830127 C73.57776075 0.1054144 84.32024976 0.11637585 95.06275403 0.12640357 C117.14838872 0.14727455 139.23398145 0.18242379 161.31958008 0.22705078 C161.31958008 0.55705078 161.31958008 0.88705078 161.31958008 1.22705078 C160.4147438 1.23036093 159.50990753 1.23367107 158.57765198 1.23708153 C136.55180471 1.31833381 114.52602604 1.41043366 92.50027466 1.51457787 C81.84874912 1.56468034 71.19723118 1.61112358 60.5456543 1.64892578 C51.26076821 1.68188695 41.97594156 1.72174101 32.6911211 1.76984084 C27.77578303 1.79506477 22.86048418 1.8168582 17.94509888 1.83039474 C13.31582854 1.84325233 8.68669296 1.86534658 4.05749702 1.89443398 C2.3612368 1.90348087 0.66495489 1.90919322 -1.0313282 1.91126442 C-3.35396356 1.91460745 -5.67622153 1.93013936 -7.9987793 1.94857788 C-9.94560608 1.95687402 -9.94560608 1.95687402 -11.9317627 1.96533775 C-14.86141072 2.16987154 -17.17570521 2.53192136 -19.97302246 3.26789284 C-23.51316998 4.18378078 -25.25561164 4.29730337 -28.68041992 3.22705078 C-28.68041992 2.89705078 -28.68041992 2.56705078 -28.68041992 2.22705078 C-19.14149026 -0.0686864 -9.73674083 -0.04391137 0 0 Z " fill="#AB6707" transform="translate(555.680419921875,278.77294921875)"/>
<path d="M0 0 C7.59 0 15.18 0 23 0 C23 1.32 23 2.64 23 4 C20.03 4 17.06 4 14 4 C14 10.27 14 16.54 14 23 C12.35 23 10.7 23 9 23 C9 16.73 9 10.46 9 4 C6.03 4 3.06 4 0 4 C0 2.68 0 1.36 0 0 Z " fill="#F77A0A" transform="translate(768,914)"/>
<path d="M0 0 C2.62697064 -0.22137393 5.00893964 -0.28162025 7.625 -0.1875 C8.33140625 -0.17396484 9.0378125 -0.16042969 9.765625 -0.14648438 C11.51074128 -0.1111104 13.25546608 -0.05730221 15 0 C15.33 1.32 15.66 2.64 16 4 C12.7 4 9.4 4 6 4 C6 5.65 6 7.3 6 9 C7.98 9 9.96 9 12 9 C12 10.98 12 12.96 12 15 C10.22992286 15.08114106 8.45877902 15.13925505 6.6875 15.1875 C5.70136719 15.22230469 4.71523438 15.25710938 3.69921875 15.29296875 C1 15 1 15 -0.8359375 13.76953125 C-2.30750439 11.53255205 -2.3701804 10.16217253 -2.3125 7.5 C-2.30863281 6.7265625 -2.30476562 5.953125 -2.30078125 5.15625 C-2 3 -2 3 0 0 Z " fill="#1A0D06" transform="translate(668,918)"/>
<path d="M0 0 C6.6 0 13.2 0 20 0 C20 1.32 20 2.64 20 4 C15.05 4 10.1 4 5 4 C5 5.98 5 7.96 5 10 C9.29 10 13.58 10 18 10 C18 10.99 18 11.98 18 13 C13.38 13 8.76 13 4 13 C4 14.98 4 16.96 4 19 C3.67 19 3.34 19 3 19 C3 17.02 3 15.04 3 13 C2.01 13.33 1.02 13.66 0 14 C0 9.38 0 4.76 0 0 Z " fill="#E4720F" transform="translate(877,914)"/>
<path d="M0 0 C0.78552246 0.01047363 1.57104492 0.02094727 2.38037109 0.03173828 C3.23115234 0.03818359 4.08193359 0.04462891 4.95849609 0.05126953 C6.29267578 0.07640625 6.29267578 0.07640625 7.65380859 0.10205078 C8.99958984 0.11558594 8.99958984 0.11558594 10.37255859 0.12939453 C12.59157445 0.15300108 14.81005937 0.18592768 17.02880859 0.22705078 C17.02880859 1.54705078 17.02880859 2.86705078 17.02880859 4.22705078 C11.74880859 4.22705078 6.46880859 4.22705078 1.02880859 4.22705078 C1.02880859 5.87705078 1.02880859 7.52705078 1.02880859 9.22705078 C5.97880859 9.22705078 10.92880859 9.22705078 16.02880859 9.22705078 C16.02880859 9.55705078 16.02880859 9.88705078 16.02880859 10.22705078 C11.40880859 10.22705078 6.78880859 10.22705078 2.02880859 10.22705078 C2.02880859 11.21705078 2.02880859 12.20705078 2.02880859 13.22705078 C-0.34619141 12.91455078 -0.34619141 12.91455078 -2.97119141 12.22705078 C-4.97119141 9.22705078 -4.97119141 9.22705078 -4.72119141 5.66455078 C-3.5751368 0.4118005 -3.5751368 0.4118005 0 0 Z " fill="#E87B0A" transform="translate(414.97119140625,913.77294921875)"/>
<path d="M0 0 C3.27132607 -0.08081043 6.54066421 -0.14040709 9.8125 -0.1875 C10.74126953 -0.21263672 11.67003906 -0.23777344 12.62695312 -0.26367188 C13.9659668 -0.27817383 13.9659668 -0.27817383 15.33203125 -0.29296875 C16.56530151 -0.31653442 16.56530151 -0.31653442 17.82348633 -0.34057617 C20.51222422 0.08015174 21.37745694 0.85297247 23 3 C23.29296875 5.26171875 23.29296875 5.26171875 23.1875 7.6875 C23.16042969 8.49574219 23.13335938 9.30398438 23.10546875 10.13671875 C23.05326172 11.05904297 23.05326172 11.05904297 23 12 C21.125 11.3125 21.125 11.3125 19 10 C18.34 8.35 17.68 6.7 17 5 C12.71 4.67 8.42 4.34 4 4 C4 6.31 4 8.62 4 11 C3.67 10.01 3.34 9.02 3 8 C2.01 8.33 1.02 8.66 0 9 C0 6.03 0 3.06 0 0 Z " fill="#E5700E" transform="translate(929,914)"/>
<path d="M0 0 C1.98 0 3.96 0 6 0 C6 7.59 6 15.18 6 23 C4.02 23 2.04 23 0 23 C0 15.41 0 7.82 0 0 Z " fill="#D4720D" transform="translate(373,914)"/>
<path d="M0 0 C1.65 0 3.3 0 5 0 C5 3.3 5 6.6 5 10 C8.3 10 11.6 10 15 10 C14.67 10.99 14.34 11.98 14 13 C11.03 13 8.06 13 5 13 C5 16.3 5 19.6 5 23 C3.35 23 1.7 23 0 23 C0 15.41 0 7.82 0 0 Z " fill="#F97809" transform="translate(821,914)"/>
<path d="M0 0 C1.17046875 0.03609375 2.3409375 0.0721875 3.546875 0.109375 C4.43890625 0.15578125 5.3309375 0.2021875 6.25 0.25 C6.58 1.24 6.91 2.23 7.25 3.25 C6.21939453 3.30607422 6.21939453 3.30607422 5.16796875 3.36328125 C4.26691406 3.42902344 3.36585938 3.49476563 2.4375 3.5625 C1.54417969 3.62050781 0.65085937 3.67851563 -0.26953125 3.73828125 C-3.1331567 4.32904493 -4.08052906 4.87194332 -5.75 7.25 C-6.28863646 9.35277944 -6.28863646 9.35277944 -6.375 11.625 C-6.63713956 14.90441937 -7.02366489 18.0333731 -7.75 21.25 C-9.22265625 20.18359375 -9.22265625 20.18359375 -10.75 18.25 C-11.18359375 15.03515625 -11.18359375 15.03515625 -11.1875 11.3125 C-11.20683594 10.08660156 -11.22617187 8.86070312 -11.24609375 7.59765625 C-10.75 4.25 -10.75 4.25 -9.14453125 1.82421875 C-5.94135853 -0.28161911 -3.79937169 -0.15197487 0 0 Z " fill="#F7820E" transform="translate(615.75,913.75)"/>
<path d="M0 0 C2.0887207 2.66143935 3.76355692 5.28182362 5.26831055 8.30957031 C5.89862434 9.5704245 5.89862434 9.5704245 6.54167175 10.85675049 C6.98553726 11.75480408 7.42940277 12.65285767 7.88671875 13.578125 C8.34859085 14.5046991 8.81046295 15.43127319 9.28633118 16.38592529 C10.75716031 19.33875698 12.22239422 22.29432505 13.6875 25.25 C14.68517898 27.2553914 15.68322164 29.26060192 16.68164062 31.265625 C19.1253138 36.17499412 21.56440188 41.08662019 24 46 C23.34 46.66 22.68 47.32 22 48 C21.49210937 46.98421875 20.98421875 45.9684375 20.4609375 44.921875 C20.1304541 44.2611499 19.7999707 43.6004248 19.45947266 42.91967773 C18.73180449 41.46384996 18.00492625 40.00762712 17.27880859 38.55102539 C15.60461725 35.19488841 13.92066527 31.84598714 12.203125 28.51171875 C9.5759185 23.39386847 7.27764208 18.62162516 6 13 C5.34 13 4.68 13 4 13 C3.32694982 11.39850114 2.66177773 9.79368971 2 8.1875 C1.62875 7.29417969 1.2575 6.40085937 0.875 5.48046875 C0 3 0 3 0 0 Z " fill="#0F0F11" transform="translate(242,794)"/>
<path d="M0 0 C0.495 0.99 0.495 0.99 1 2 C-3.58246428 7.48604878 -8.50009519 12.548113 -13.58374023 17.56201172 C-16.45298276 20.40644551 -19.19595509 23.29184776 -21.8125 26.375 C-24.90323585 30.01384664 -28.30352616 32.98247034 -32 36 C-32.66 35.67 -33.32 35.34 -34 35 C-33.43079834 34.43603516 -32.86159668 33.87207031 -32.27514648 33.29101562 C-29.65988156 30.69673231 -27.04867381 28.09840077 -24.4375 25.5 C-23.54224609 24.613125 -22.64699219 23.72625 -21.72460938 22.8125 C-17.12425145 18.2289932 -12.66797926 13.59657379 -8.44116211 8.66601562 C-6.7308195 6.68882133 -4.92972261 4.82911603 -3.0625 3 C-2.47597656 2.4225 -1.88945313 1.845 -1.28515625 1.25 C-0.86105469 0.8375 -0.43695312 0.425 0 0 Z " fill="#E46E0B" transform="translate(655,568)"/>
<path d="M0 0 C1.97909398 -0.02686553 3.95828971 -0.04633375 5.9375 -0.0625 C7.03964844 -0.07410156 8.14179687 -0.08570313 9.27734375 -0.09765625 C12 0 12 0 13 1 C13.125 3.5 13.125 3.5 13 6 C12 7 12 7 9.27734375 7.09765625 C7.62412109 7.08025391 7.62412109 7.08025391 5.9375 7.0625 C4.83277344 7.05347656 3.72804688 7.04445313 2.58984375 7.03515625 C1.30787109 7.01775391 1.30787109 7.01775391 0 7 C0 4.69 0 2.38 0 0 Z " fill="#1F0F09" transform="translate(934,918)"/>
<path d="M0 0 C1.97909398 -0.02686553 3.95828971 -0.04633375 5.9375 -0.0625 C7.03964844 -0.07410156 8.14179688 -0.08570313 9.27734375 -0.09765625 C12 0 12 0 13 1 C13.125 3.5 13.125 3.5 13 6 C12 7 12 7 9.27734375 7.09765625 C7.62412109 7.08025391 7.62412109 7.08025391 5.9375 7.0625 C4.83277344 7.05347656 3.72804688 7.04445313 2.58984375 7.03515625 C1.30787109 7.01775391 1.30787109 7.01775391 0 7 C0 4.69 0 2.38 0 0 Z " fill="#1C0E06" transform="translate(323,918)"/>
<path d="M0 0 C0.33 0.66 0.66 1.32 1 2 C0.01 3.485 0.01 3.485 -1 5 C-1.66 4.67 -2.32 4.34 -3 4 C-2.01 2.68 -1.02 1.36 0 0 Z M-4 5 C-4 8.48857803 -4.37668566 8.77185378 -6.67578125 11.1875 C-7.25183105 11.79907959 -7.82788086 12.41065918 -8.42138672 13.04077148 C-9.0454541 13.68731689 -9.66952148 14.3338623 -10.3125 15 C-11.25633545 15.99398804 -11.25633545 15.99398804 -12.21923828 17.00805664 C-17.7142756 22.77028131 -23.31797786 28.42234153 -29 34 C-29.99 33.67 -30.98 33.34 -32 33 C-31.01 32.67 -30.02 32.34 -29 32 C-28.71592285 31.43120117 -28.4318457 30.86240234 -28.13916016 30.27636719 C-26.5793902 27.15950155 -24.23472046 24.98784934 -21.7734375 22.578125 C-21.26575836 22.07327576 -20.75807922 21.56842651 -20.23501587 21.04827881 C-18.61966158 19.44407904 -16.99747791 17.84699144 -15.375 16.25 C-14.27558302 15.16061893 -13.17661941 14.0707801 -12.078125 12.98046875 C-9.3906398 10.31498115 -6.69700979 7.65584857 -4 5 Z " fill="#E06E09" transform="translate(699,522)"/>
<path d="M0 0 C0.33 0 0.66 0 1 0 C1 1.65 1 3.3 1 5 C5.62 5 10.24 5 15 5 C15 6.32 15 7.64 15 9 C10.38 9 5.76 9 1 9 C1 10.98 1 12.96 1 15 C0.01 15 -0.98 15 -2 15 C-2.21755666 9.5610835 -2.10428384 5.12919186 0 0 Z " fill="#D3630A" transform="translate(721,918)"/>
<path d="M0 0 C2.45862401 -0.05383848 4.9160755 -0.09359038 7.375 -0.125 C8.42300781 -0.15013672 8.42300781 -0.15013672 9.4921875 -0.17578125 C11.32897486 -0.19344267 13.16601963 -0.10303261 15 0 C17 2 17 2 17.1953125 3.9453125 C17.13020833 5.96354167 17.06510417 7.98177083 17 10 C15.35 10 13.7 10 12 10 C11 8 11 8 11 4 C7.37 3.67 3.74 3.34 0 3 C0 2.01 0 1.02 0 0 Z " fill="#F6830A" transform="translate(417,924)"/>
<path d="M0 0 C5.28 0 10.56 0 16 0 C16 1.32 16 2.64 16 4 C13.03 4 10.06 4 7 4 C7 10.27 7 16.54 7 23 C6.67 23 6.34 23 6 23 C5.67 17.39 5.34 11.78 5 6 C4.34 5.67 3.68 5.34 3 5 C3 4.01 3 3.02 3 2 C2.01 1.34 1.02 0.68 0 0 Z " fill="#DF6A09" transform="translate(775,914)"/>
<path d="M0 0 C0.99 0 1.98 0 3 0 C3 1.98 3 3.96 3 6 C8.28 6 13.56 6 19 6 C19 6.99 19 7.98 19 9 C16.02077407 9.02683987 13.04178705 9.04676037 10.0625 9.0625 C8.78729492 9.07506836 8.78729492 9.07506836 7.48632812 9.08789062 C6.67744141 9.09111328 5.86855469 9.09433594 5.03515625 9.09765625 C4.2862915 9.10289307 3.53742676 9.10812988 2.76586914 9.11352539 C1 9 1 9 0 8 C-0.14115161 5.32941149 -0.04247107 2.67567762 0 0 Z " fill="#F27D06" transform="translate(467,927)"/>
<path d="M0 0 C3.96 0 7.92 0 12 0 C12 2.97 12 5.94 12 9 C11.01 9.495 11.01 9.495 10 10 C9.67 9.01 9.34 8.02 9 7 C8.01 7.66 7.02 8.32 6 9 C6 7.35 6 5.7 6 4 C4.02 4 2.04 4 0 4 C0 2.68 0 1.36 0 0 Z " fill="#D2680E" transform="translate(674,923)"/>
<path d="M0 0 C3.47921735 -0.02683201 6.95823039 -0.0467567 10.4375 -0.0625 C11.92733398 -0.07506836 11.92733398 -0.07506836 13.44726562 -0.08789062 C14.39150391 -0.09111328 15.33574219 -0.09433594 16.30859375 -0.09765625 C17.62041626 -0.10551147 17.62041626 -0.10551147 18.95874023 -0.11352539 C21 0 21 0 22 1 C22.14115161 3.67058851 22.04247107 6.32432238 22 9 C21.34 8.34 20.68 7.68 20 7 C19.01 7.495 19.01 7.495 18 8 C18 6.02 18 4.04 18 2 C17.01 2.33 16.02 2.66 15 3 C13.16341803 2.93914939 11.32856723 2.80687362 9.5 2.625 C8.5409375 2.53476562 7.581875 2.44453125 6.59375 2.3515625 C4 2 4 2 1 1 C1 4.96 1 8.92 1 13 C0.67 13 0.34 13 0 13 C0 8.71 0 4.42 0 0 Z " fill="#F7860B" transform="translate(319,915)"/>
<path d="M0 0 C0.33 0.99 0.66 1.98 1 3 C1.66 3 2.32 3 3 3 C3.33 2.01 3.66 1.02 4 0 C4 6.27 4 12.54 4 19 C2.68 19 1.36 19 0 19 C0 12.73 0 6.46 0 0 Z " fill="#F77E08" transform="translate(562,918)"/>
<path d="M0 0 C5.28 0 10.56 0 16 0 C15.67 1.32 15.34 2.64 15 4 C12.11584117 5.44207941 9.58278472 5.09394887 6.375 5.0625 C5.18648438 5.05347656 3.99796875 5.04445313 2.7734375 5.03515625 C1.85820312 5.02355469 0.94296875 5.01195312 0 5 C0 3.35 0 1.7 0 0 Z " fill="#1F0F05" transform="translate(416,918)"/>
<path d="M0 0 C3 1 3 1 5 3 C5 4.32 5 5.64 5 7 C9.95 7 14.9 7 20 7 C20 7.33 20 7.66 20 8 C15.38 8 10.76 8 6 8 C6 8.99 6 9.98 6 11 C3.625 10.6875 3.625 10.6875 1 10 C-1.56687367 6.1496895 -0.83288724 4.41430237 0 0 Z " fill="#D26F0C" transform="translate(411,916)"/>
<path d="M0 0 C5.28 0 10.56 0 16 0 C15.34 1.65 14.68 3.3 14 5 C9.38 5 4.76 5 0 5 C0 3.35 0 1.7 0 0 Z " fill="#1A0B03" transform="translate(722,918)"/>
<path d="M0 0 C2.06183633 -0.08150744 4.12461349 -0.1394194 6.1875 -0.1875 C7.33605469 -0.22230469 8.48460937 -0.25710938 9.66796875 -0.29296875 C13.27039199 0.02377421 15.09366839 0.91466602 18 3 C17.690625 3.639375 17.38125 4.27875 17.0625 4.9375 C15.68064597 8.92049104 15.3463457 12.81650849 15 17 C14.67 17 14.34 17 14 17 C13.67 13.04 13.34 9.08 13 5 C9.37 5 5.74 5 2 5 C2 4.67 2 4.34 2 4 C6.455 3.505 6.455 3.505 11 3 C11 2.34 11 1.68 11 1 C7.37 1 3.74 1 0 1 C0 0.67 0 0.34 0 0 Z " fill="#BB5C0A" transform="translate(611,913)"/>
<path d="M0 0 C0.66 1.32 1.32 2.64 2 4 C1.01 5.485 1.01 5.485 0 7 C-2.95064148 7.2208564 -5.68368231 7.28060989 -8.625 7.1875 C-9.42679688 7.17396484 -10.22859375 7.16042969 -11.0546875 7.14648438 C-13.03674378 7.11109051 -15.01845551 7.05728234 -17 7 C-16.67 6.01 -16.34 5.02 -16 4 C-14.64455078 3.94392578 -14.64455078 3.94392578 -13.26171875 3.88671875 C-12.08222656 3.82097656 -10.90273438 3.75523437 -9.6875 3.6875 C-8.51574219 3.62949219 -7.34398437 3.57148437 -6.13671875 3.51171875 C-2.9016314 2.98395232 -1.91315119 2.57619276 0 0 Z " fill="#F67B07" transform="translate(683,929)"/>
<path d="M0 0 C0.33 0 0.66 0 1 0 C1.06058594 0.71027344 1.12117187 1.42054688 1.18359375 2.15234375 C1.26738281 3.07144531 1.35117187 3.99054687 1.4375 4.9375 C1.51871094 5.85402344 1.59992187 6.77054688 1.68359375 7.71484375 C1.76044976 9.96159732 1.76044976 9.96159732 3 11 C4.68183948 11.23287008 6.3712416 11.41264166 8.0625 11.5625 C8.98160156 11.64628906 9.90070312 11.73007812 10.84765625 11.81640625 C11.55792969 11.87699219 12.26820313 11.93757812 13 12 C13 12.33 13 12.66 13 13 C8.545 13.495 8.545 13.495 4 14 C8.29 14.33 12.58 14.66 17 15 C17 15.33 17 15.66 17 16 C11.39 16 5.78 16 0 16 C-0.66 14.35 -1.32 12.7 -2 11 C-1.67 10.34 -1.34 9.68 -1 9 C-0.77532169 7.46331135 -0.59203195 5.92031946 -0.4375 4.375 C-0.35371094 3.55773437 -0.26992188 2.74046875 -0.18359375 1.8984375 C-0.12300781 1.27195312 -0.06242188 0.64546875 0 0 Z " fill="#DC6E09" transform="translate(609,921)"/>
<path d="M0 0 C0.33 0 0.66 0 1 0 C1 3.63 1 7.26 1 11 C3.97 11.495 3.97 11.495 7 12 C7.33 13.32 7.66 14.64 8 16 C12.29 16.33 16.58 16.66 21 17 C21 17.33 21 17.66 21 18 C18.22858283 18.08089542 15.45952181 18.14044062 12.6875 18.1875 C11.90181641 18.21263672 11.11613281 18.23777344 10.30664062 18.26367188 C9.54931641 18.27333984 8.79199219 18.28300781 8.01171875 18.29296875 C7.31522217 18.3086792 6.61872559 18.32438965 5.90112305 18.34057617 C3.39400486 17.89143917 2.55626316 16.98030359 1 15 C-0.09506492 11.71480525 -0.09960608 9.26336585 -0.0625 5.8125 C-0.05347656 4.72582031 -0.04445313 3.63914062 -0.03515625 2.51953125 C-0.02355469 1.68808594 -0.01195312 0.85664062 0 0 Z " fill="#D66A09" transform="translate(661,919)"/>
<path d="M0 0 C1.38294718 0.01329757 2.76582404 0.03715018 4.1484375 0.0703125 C4.85484375 0.07933594 5.56125 0.08835937 6.2890625 0.09765625 C8.03399848 0.12123647 9.77876045 0.15710789 11.5234375 0.1953125 C11.5234375 1.1853125 11.5234375 2.1753125 11.5234375 3.1953125 C6.9034375 3.1953125 2.2834375 3.1953125 -2.4765625 3.1953125 C-2.4765625 5.1753125 -2.4765625 7.1553125 -2.4765625 9.1953125 C-2.8065625 9.1953125 -3.1365625 9.1953125 -3.4765625 9.1953125 C-3.4765625 7.2153125 -3.4765625 5.2353125 -3.4765625 3.1953125 C-4.1365625 2.8653125 -4.7965625 2.5353125 -5.4765625 2.1953125 C-3.4765625 0.1953125 -3.4765625 0.1953125 0 0 Z " fill="#F37306" transform="translate(883.4765625,923.8046875)"/>
<path d="M0 0 C7.26 0 14.52 0 22 0 C22 0.99 22 1.98 22 3 C14.25 3.125 14.25 3.125 12 2 C11.01 2.33 10.02 2.66 9 3 C7.43881572 3.06740865 5.8749748 3.08514456 4.3125 3.0625 C3.10013672 3.04896484 3.10013672 3.04896484 1.86328125 3.03515625 C0.94095703 3.01775391 0.94095703 3.01775391 0 3 C0 2.01 0 1.02 0 0 Z " fill="#F17B07" transform="translate(553,914)"/>
<path d="M0 0 C0.66 0.33 1.32 0.66 2 1 C0.02 6.61 -1.96 12.22 -4 18 C-4.33 18 -4.66 18 -5 18 C-5 15.36 -5 12.72 -5 10 C-6.65 10.66 -8.3 11.32 -10 12 C-9.61328125 11.55269531 -9.2265625 11.10539062 -8.828125 10.64453125 C-5.81609925 7.1478974 -2.85678969 3.62592537 0 0 Z " fill="#F78D0C" transform="translate(629,413)"/>
<path d="M0 0 C1.97986082 0.11347619 3.95891598 0.2410935 5.9375 0.375 C7.03964844 0.44460938 8.14179687 0.51421875 9.27734375 0.5859375 C10.62505859 0.79089844 10.62505859 0.79089844 12 1 C12.33 1.66 12.66 2.32 13 3 C10.36 3.33 7.72 3.66 5 4 C4.67 6.31 4.34 8.62 4 11 C3.67 10.01 3.34 9.02 3 8 C2.01 8.33 1.02 8.66 0 9 C0 6.03 0 3.06 0 0 Z " fill="#F87B11" transform="translate(929,914)"/>
<path d="M0 0 C0.99 0.33 1.98 0.66 3 1 C-1.455 4.465 -1.455 4.465 -6 8 C-6.66 7.67 -7.32 7.34 -8 7 C-6.74057614 5.80040625 -5.46704714 4.61560557 -4.1875 3.4375 C-3.12595703 2.44556641 -3.12595703 2.44556641 -2.04296875 1.43359375 C-1.36878906 0.96050781 -0.69460938 0.48742187 0 0 Z M-10 8 C-9.34 8.33 -8.68 8.66 -8 9 C-9.41208167 10.60820412 -10.82986036 12.21140708 -12.25 13.8125 C-13.03890625 14.70582031 -13.8278125 15.59914063 -14.640625 16.51953125 C-16.65879445 18.64128225 -18.59916705 20.34254423 -21 22 C-19.57442379 18.82096506 -17.8226848 16.46341568 -15.5 13.875 C-14.8915625 13.19179688 -14.283125 12.50859375 -13.65625 11.8046875 C-12.46695076 10.50880012 -11.24373566 9.24373566 -10 8 Z " fill="#E39706" transform="translate(477,304)"/>
<path d="M0 0 C1.32 0 2.64 0 4 0 C4 7.59 4 15.18 4 23 C2.68 23 1.36 23 0 23 C0 22.34 0 21.68 0 21 C0.99 21 1.98 21 3 21 C3 16.05 3 11.1 3 6 C2.34 6 1.68 6 1 6 C0.67 6.99 0.34 7.98 0 9 C0 6.03 0 3.06 0 0 Z " fill="#F17B0D" transform="translate(840,914)"/>
<path d="M0 0 C4.62 0 9.24 0 14 0 C14 2.31 14 4.62 14 7 C13.67 5.68 13.34 4.36 13 3 C8.71 3 4.42 3 0 3 C0 2.01 0 1.02 0 0 Z " fill="#160B06" transform="translate(471,920)"/>
<path d="M0 0 C4.62 0 9.24 0 14 0 C14 0.99 14 1.98 14 3 C9.38 3 4.76 3 0 3 C0 2.01 0 1.02 0 0 Z " fill="#F17D06" transform="translate(470,924)"/>
<path d="M0 0 C4.29 0 8.58 0 13 0 C13.33 0.99 13.66 1.98 14 3 C9.38 3 4.76 3 0 3 C0 2.01 0 1.02 0 0 Z " fill="#110702" transform="translate(882,920)"/>
<path d="M0 0 C0.33 0.66 0.66 1.32 1 2 C0.01 3.485 0.01 3.485 -1 5 C-1.66 4.67 -2.32 4.34 -3 4 C-2.01 2.68 -1.02 1.36 0 0 Z M-4 5 C-4 9.07211906 -5.5535064 10.1414603 -8.25 13.125 C-9.43335938 14.45917969 -9.43335938 14.45917969 -10.640625 15.8203125 C-12.90987032 17.9167345 -13.99179674 18.65502256 -17 19 C-12.88380164 14.08064098 -8.59589638 9.47352044 -4 5 Z " fill="#ED7309" transform="translate(699,522)"/>
<path d="M0 0 C0.99 0.33 1.98 0.66 3 1 C3 4.96 3 8.92 3 13 C2.67 13 2.34 13 2 13 C1.67 11.35 1.34 9.7 1 8 C0.01 9.32 -0.98 10.64 -2 12 C-2.05422947 10.5629191 -2.09289723 9.12524538 -2.125 7.6875 C-2.14820313 6.88699219 -2.17140625 6.08648438 -2.1953125 5.26171875 C-2 3 -2 3 0 0 Z " fill="#DC6D0E" transform="translate(628,918)"/>
<path d="M0 0 C1.65 0 3.3 0 5 0 C3.68 0.33 2.36 0.66 1 1 C1 7.27 1 13.54 1 20 C2.32 20 3.64 20 5 20 C5 20.99 5 21.98 5 23 C3.35 23 1.7 23 0 23 C0 15.41 0 7.82 0 0 Z " fill="#EA6B0B" transform="translate(821,914)"/>
<path d="M0 0 C0.99 0.33 1.98 0.66 3 1 C3 3.97 3 6.94 3 10 C1.68 9.34 0.36 8.68 -1 8 C-1.875 5 -1.875 5 -2 2 C-1.34 1.34 -0.68 0.68 0 0 Z " fill="#EE7612" transform="translate(949,916)"/>
<path d="M0 0 C0.99 0 1.98 0 3 0 C3 1.65 3 3.3 3 5 C7.29 5 11.58 5 16 5 C16 5.33 16 5.66 16 6 C11.38 6 6.76 6 2 6 C1.67 7.32 1.34 8.64 1 10 C0.34 9.67 -0.32 9.34 -1 9 C-0.67 6.03 -0.34 3.06 0 0 Z " fill="#D06A07" transform="translate(468,918)"/>
<path d="M0 0 C4.29 0 8.58 0 13 0 C13 0.99 13 1.98 13 3 C9.04 3 5.08 3 1 3 C0.67 2.01 0.34 1.02 0 0 Z " fill="#F57605" transform="translate(722,924)"/>
<path d="M0 0 C0 0.99 0 1.98 0 3 C-5.28 3 -10.56 3 -16 3 C-16.33 2.34 -16.66 1.68 -17 1 C-14.72926348 0.83201949 -12.45840707 0.66565887 -10.1875 0.5 C-8.29064453 0.36078125 -8.29064453 0.36078125 -6.35546875 0.21875 C-4.24021483 0.08085219 -2.11974408 0 0 0 Z " fill="#F7800D" transform="translate(897,914)"/>
<path d="M0 0 C-1 3 -1 3 -3 4.8125 C-5.46116528 7.50439953 -5.67519632 9.42715954 -6 13 C-6.33 13 -6.66 13 -7 13 C-8.59239395 4.89956119 -8.59239395 4.89956119 -6.3125 1.4375 C-4 0 -4 0 0 0 Z " fill="#161618" transform="translate(374,781)"/>
<path d="M0 0 C0.66 0.33 1.32 0.66 2 1 C-2.11201083 6.26851387 -6.93563395 11.96781697 -13 15 C-11.38989473 10.92623969 -8.46177729 8.23492931 -5.375 5.25 C-4.859375 4.74339844 -4.34375 4.23679687 -3.8125 3.71484375 C-2.54616661 2.47196098 -1.2736856 1.23534724 0 0 Z " fill="#F08A06" transform="translate(561,484)"/>
<path d="M0 0 C2.74054368 3.32486381 4.42376049 6.83057886 6.1875 10.75 C6.71730469 11.92046875 7.24710938 13.0909375 7.79296875 14.296875 C8.19128906 15.18890625 8.58960938 16.0809375 9 17 C8.34 17 7.68 17 7 17 C6.67 15.68 6.34 14.36 6 13 C5.34 13 4.68 13 4 13 C3.32694982 11.39850114 2.66177773 9.79368971 2 8.1875 C1.62875 7.29417969 1.2575 6.40085937 0.875 5.48046875 C0 3 0 3 0 0 Z " fill="#151518" transform="translate(242,794)"/>
<path d="M0 0 C0.33 0.66 0.66 1.32 1 2 C-6.11389522 10.81548975 -6.11389522 10.81548975 -11 12 C-7.49102731 7.81576108 -3.91939465 3.80411834 0 0 Z " fill="#D6690A" transform="translate(655,568)"/>
<path d="M0 0 C6.93 0.495 6.93 0.495 14 1 C14 1.33 14 1.66 14 2 C10.37 2 6.74 2 3 2 C3 4.31 3 6.62 3 9 C2.01 8.67 1.02 8.34 0 8 C0 5.36 0 2.72 0 0 Z " fill="#DE750D" transform="translate(320,916)"/>
<path d="M0 0 C2.31 0 4.62 0 7 0 C7 0.99 7 1.98 7 3 C7.66 3.33 8.32 3.66 9 4 C6.03 4 3.06 4 0 4 C0 2.68 0 1.36 0 0 Z " fill="#E97B0D" transform="translate(768,914)"/>
<path d="M0 0 C0.66 0.33 1.32 0.66 2 1 C2.625 3.0625 2.625 3.0625 3 5 C0.69 5.66 -1.62 6.32 -4 7 C-3.43628586 3.73045798 -2.50037734 2.17424117 0 0 Z " fill="#E0730A" transform="translate(609,914)"/>
<path d="M0 0 C0.66 1.32 1.32 2.64 2 4 C1.01 4.99 0.02 5.98 -1 7 C-1.33 6.34 -1.66 5.68 -2 5 C-5.63 5 -9.26 5 -13 5 C-13 4.67 -13 4.34 -13 4 C-12.31292969 3.96261719 -11.62585938 3.92523437 -10.91796875 3.88671875 C-10.01691406 3.82097656 -9.11585938 3.75523437 -8.1875 3.6875 C-7.29417969 3.62949219 -6.40085937 3.57148437 -5.48046875 3.51171875 C-2.69396 2.93686419 -1.75864246 2.1793144 0 0 Z " fill="#ED7910" transform="translate(683,929)"/>
<path d="M0 0 C0.66 0.33 1.32 0.66 2 1 C2 4.96 2 8.92 2 13 C-1 10 -1 10 -1.07421875 7.51953125 C-0.94660156 6.62621094 -0.81898438 5.73289062 -0.6875 4.8125 C-0.56761719 3.91144531 -0.44773437 3.01039063 -0.32421875 2.08203125 C-0.21722656 1.39496094 -0.11023438 0.70789063 0 0 Z " fill="#EC7C12" transform="translate(606,922)"/>
<path d="M0 0 C6.625 -0.25 6.625 -0.25 10 2 C7.59454362 3.20272819 6.05003047 3.10071472 3.375 3.0625 C2.14910156 3.04896484 2.14910156 3.04896484 0.8984375 3.03515625 C-0.04128906 3.01775391 -0.04128906 3.01775391 -1 3 C-0.67 2.01 -0.34 1.02 0 0 Z " fill="#E05D0A" transform="translate(709,684)"/>
<path d="M0 0 C0.99 1.32 1.98 2.64 3 4 C1.70700306 6.88437779 0.34058637 8.87219421 -2 11 C-1.40049704 7.31733897 -0.75241109 3.65456815 0 0 Z " fill="#E07507" transform="translate(626,559)"/>
<path d="M0 0 C0.66 0 1.32 0 2 0 C2.99 2.31 3.98 4.62 5 7 C4.01 7 3.02 7 2 7 C1.34 6.34 0.68 5.68 0 5 C-0.99 5.495 -0.99 5.495 -2 6 C-1.34 4.02 -0.68 2.04 0 0 Z " fill="#222225" transform="translate(237,786)"/>
<path d="M0 0 C-3.03525486 2.02350324 -4.19426202 2.32124018 -7.6875 2.625 C-8.49574219 2.69976563 -9.30398438 2.77453125 -10.13671875 2.8515625 C-10.75160156 2.90054688 -11.36648438 2.94953125 -12 3 C-12 2.34 -12 1.68 -12 1 C-10.56496445 0.63597631 -9.12683494 0.28413409 -7.6875 -0.0625 C-6.88699219 -0.25972656 -6.08648438 -0.45695313 -5.26171875 -0.66015625 C-3 -1 -3 -1 0 0 Z " fill="#E15E0A" transform="translate(732,683)"/>
<path d="M0 0 C0.99 0.33 1.98 0.66 3 1 C0.03 3.97 -2.94 6.94 -6 10 C-6.66 9.67 -7.32 9.34 -8 9 C-5.36 6.03 -2.72 3.06 0 0 Z " fill="#EC780C" transform="translate(643,580)"/>
<path d="M0 0 C2 4 4 8 6 12 C5.34 12.66 4.68 13.32 4 14 C1.28608722 9.22642128 -0.56561146 5.65611463 0 0 Z " fill="#1D1D1F" transform="translate(498,840)"/>
<path d="M0 0 C4.62 0 9.24 0 14 0 C13.67 0.99 13.34 1.98 13 3 C13 2.34 13 1.68 13 1 C11.3954444 1.14148989 9.79136233 1.28835686 8.1875 1.4375 C6.84751953 1.55931641 6.84751953 1.55931641 5.48046875 1.68359375 C2.87256441 1.93489767 2.87256441 1.93489767 0 3 C0 2.01 0 1.02 0 0 Z " fill="#FC8308" transform="translate(470,924)"/>
<path d="M0 0 C2.97 0 5.94 0 9 0 C9.33 0.66 9.66 1.32 10 2 C6.7 2.33 3.4 2.66 0 3 C0 2.01 0 1.02 0 0 Z " fill="#F57604" transform="translate(932,915)"/>
<path d="M0 0 C0.66 0.99 1.32 1.98 2 3 C0.35 5.64 -1.3 8.28 -3 11 C-4.3968009 6.80959731 -2.86445675 4.87233324 -1 1 C-0.67 0.67 -0.34 0.34 0 0 Z " fill="#151518" transform="translate(503,768)"/>
<path d="M0 0 C0.66 0.33 1.32 0.66 2 1 C1.01 3.97 0.02 6.94 -1 10 C-1.33 8.68 -1.66 7.36 -2 6 C-2.66 5.67 -3.32 5.34 -4 5 C-2.68 3.35 -1.36 1.7 0 0 Z " fill="#CC760C" transform="translate(629,413)"/>
<path d="M0 0 C-6.39130435 4.26086957 -6.39130435 4.26086957 -10.3125 3.625 C-10.869375 3.41875 -11.42625 3.2125 -12 3 C-7.85930434 0.85826087 -4.68855996 -0.12671784 0 0 Z " fill="#E8600A" transform="translate(745,679)"/>
<path d="M0 0 C0.99 0.33 1.98 0.66 3 1 C3 3.64 3 6.28 3 9 C0.90250005 6.64031256 0.03094296 5.45383006 -0.1875 2.25 C-0.125625 1.5075 -0.06375 0.765 0 0 Z " fill="#F08111" transform="translate(338,915)"/>
<path d="M0 0 C1.3303125 0.4021875 1.3303125 0.4021875 2.6875 0.8125 C-0.81788557 2.77551592 -4.44601728 3.77152388 -8.3125 4.8125 C-4.12788462 -0.23365385 -4.12788462 -0.23365385 0 0 Z " fill="#1B1C1E" transform="translate(534.3125,782.1875)"/>
<path d="M0 0 C0 4.38968456 -2.12805101 5.76905739 -5 9 C-5.66 8.67 -6.32 8.34 -7 8 C-4.69 5.36 -2.38 2.72 0 0 Z " fill="#D67B0A" transform="translate(569,475)"/>
<path d="M0 0 C0.33 0.99 0.66 1.98 1 3 C-1.31 4.98 -3.62 6.96 -6 9 C-4.25618453 5.51236907 -2.47193291 2.96631949 0 0 Z " fill="#1D1109" transform="translate(583,430)"/>
<path d="M0 0 C2.64 0.33 5.28 0.66 8 1 C6 3 6 3 3.375 3.125 C2.59125 3.08375 1.8075 3.0425 1 3 C0.67 2.01 0.34 1.02 0 0 Z " fill="#0F0F11" transform="translate(1042,781)"/>
</svg>
